<svg width="26" height="27" viewBox="0 0 26 27" fill="none" xmlns="http://www.w3.org/2000/svg">
<path d="M22.4639 13.5C22.4639 8.06564 18.2329 3.67188 12.9998 3.67188C7.76667 3.67188 3.53564 8.06564 3.53564 13.5C3.53564 18.9344 7.76667 23.3282 12.9998 23.3282C18.2329 23.3282 22.4639 18.9344 22.4639 13.5ZM4.64907 13.5C4.64907 8.70158 8.37906 4.82813 12.9998 4.82813C17.6205 4.82813 21.3505 8.70158 21.3505 13.5C21.3505 18.2985 17.6205 22.1719 12.9998 22.1719C8.37906 22.1719 4.64907 18.2985 4.64907 13.5Z" fill="#701B45"/>
<path d="M13.9466 18.2984L9.32589 13.4999L13.9466 8.70147L13.1672 7.89209L7.76709 13.4999L13.1672 19.1077L13.9466 18.2984Z" fill="#701B45"/>
<path d="M8.54639 12.9219L8.54639 14.0781L18.0105 14.0781L18.0105 12.9219L8.54639 12.9219Z" fill="#701B45"/>
</svg>
