<svg width="145" height="46" viewBox="0 0 145 46" fill="none" xmlns="http://www.w3.org/2000/svg">
<g clip-path="url(#clip0_194_8)">
<path d="M0 9.29001H15.19V12.65H3.86V21.71H13.51V25.07H3.86V36.86H0V9.29001Z" fill="#701B45"/>
<path fill-rule="evenodd" clip-rule="evenodd" d="M8.76001 45.65H45.41L63.27 0.5H26.62L8.76001 45.65ZM33.79 9.29004H25.37V36.86H29.23V25.89H35.12L40.94 36.86H45.31L39.45 26.16C38.94 25.26 38.63 24.91 38.63 24.91V24.83C41.64 23.85 43.59 21 43.59 17.37C43.59 13.74 41.75 10.96 38.94 9.91004C37.89 9.52004 36.68 9.29004 33.79 9.29004ZM39.65 17.52C39.65 20.61 37.78 22.52 34.77 22.52L34.76 22.53H29.22V12.65H33.67C35.82 12.65 36.72 12.88 37.46 13.27C38.87 14.05 39.65 15.49 39.65 17.52Z" fill="#701B45"/>
<path d="M72.57 28.93H62.19L59.46 36.85H55.48L65.4 9.29001H69.46L79.38 36.85H75.36L72.59 28.93H72.57ZM67.38 13.08C67.38 13.08 66.76 15.58 66.29 16.98L63.21 25.72H71.56L68.52 16.98C68.05 15.57 67.47 13.08 67.47 13.08H67.39H67.38Z" fill="#701B45"/>
<path d="M86.6099 9.20961H90.6099V10.0896H87.6299V12.4696H90.1699V13.3496H87.6299V16.4496H86.6099V9.18961V9.20961Z" fill="#701B45"/>
<path d="M91.97 9.20999H92.99V16.47H91.97V9.20999Z" fill="#701B45"/>
<path d="M94.96 9.20999H95.97L99.2 13.93C99.47 14.32 99.81 14.98 99.81 14.98H99.83C99.83 14.98 99.76 14.33 99.76 13.93V9.20999H100.78V16.47H99.78L96.54 11.76C96.27 11.36 95.93 10.7 95.93 10.7H95.91C95.91 10.7 95.98 11.35 95.98 11.76V16.47H94.96V9.20999Z" fill="#701B45"/>
<path d="M106.34 14.39H103.61L102.89 16.48H101.84L104.45 9.22H105.52L108.13 16.48H107.07L106.34 14.39ZM104.97 10.22C104.97 10.22 104.81 10.88 104.68 11.25L103.87 13.55H106.07L105.27 11.25C105.15 10.88 104.99 10.22 104.99 10.22H104.97Z" fill="#701B45"/>
<path d="M109.2 9.20999H110.21L113.44 13.93C113.71 14.32 114.05 14.98 114.05 14.98H114.07C114.07 14.98 114 14.33 114 13.93V9.20999H115.02V16.47H114.02L110.78 11.76C110.51 11.36 110.17 10.7 110.17 10.7H110.15C110.15 10.7 110.22 11.35 110.22 11.76V16.47H109.2V9.20999Z" fill="#701B45"/>
<path d="M120.18 9.09C121.93 9.09 122.82 10.05 122.82 10.05L122.32 10.81C122.32 10.81 121.48 10.02 120.22 10.02C118.6 10.02 117.54 11.25 117.54 12.8C117.54 14.35 118.62 15.67 120.23 15.67C121.6 15.67 122.47 14.72 122.47 14.72L123.01 15.45C123.01 15.45 122.01 16.6 120.19 16.6C118.01 16.6 116.48 14.93 116.48 12.81C116.48 10.69 118.06 9.1 120.17 9.1L120.18 9.09Z" fill="#701B45"/>
<path d="M124.4 9.20999H125.42V16.47H124.4V9.20999Z" fill="#701B45"/>
<path d="M130.99 14.39H128.26L127.54 16.48H126.49L129.1 9.22H130.17L132.78 16.48H131.72L130.99 14.39ZM129.62 10.22C129.62 10.22 129.46 10.88 129.33 11.25L128.52 13.55H130.72L129.92 11.25C129.8 10.88 129.64 10.22 129.64 10.22H129.62Z" fill="#701B45"/>
<path d="M133.85 9.21035H134.87V15.5803H138.12V16.4603H133.85V9.20035V9.21035Z" fill="#701B45"/>
<path d="M86.61 20.39H88.83C89.59 20.39 89.91 20.45 90.19 20.55C90.93 20.83 91.41 21.56 91.41 22.51C91.41 23.46 90.9 24.22 90.1 24.47V24.49C90.1 24.49 90.18 24.58 90.32 24.82L91.86 27.64H90.71L89.18 24.75H87.63V27.64H86.61V20.38V20.39ZM89.09 23.87C89.88 23.87 90.37 23.37 90.37 22.55C90.37 22.02 90.16 21.64 89.79 21.43C89.59 21.33 89.36 21.27 88.79 21.27H87.62V23.87H89.08H89.09Z" fill="#701B45"/>
<path d="M93.2 20.3903H97.41V21.2703H94.21V23.5403H96.81V24.4203H94.21V26.7503H97.58V27.6303H93.19V20.3703L93.2 20.3903Z" fill="#701B45"/>
<path d="M99.0899 20.3903H103.09V21.2703H100.11V23.6503H102.65V24.5303H100.11V27.6303H99.0899V20.3703V20.3903Z" fill="#701B45"/>
<path d="M104.35 20.39H105.37V25.08C105.37 26.19 106.09 26.84 107.2 26.84C108.31 26.84 109.05 26.19 109.05 25.06V20.39H110.07V25.08C110.07 26.69 108.91 27.77 107.21 27.77C105.51 27.77 104.35 26.69 104.35 25.08V20.39Z" fill="#701B45"/>
<path d="M111.93 20.39H112.94L116.17 25.11C116.44 25.5 116.78 26.16 116.78 26.16H116.8C116.8 26.16 116.73 25.51 116.73 25.11V20.39H117.75V27.65H116.75L113.51 22.94C113.24 22.54 112.9 21.88 112.9 21.88H112.88C112.88 21.88 112.95 22.53 112.95 22.94V27.65H111.93V20.39Z" fill="#701B45"/>
<path d="M119.72 20.39H122.12C124.34 20.39 125.8 21.72 125.8 24.01C125.8 26.3 124.34 27.65 122.12 27.65H119.72V20.39ZM122.05 26.76C123.68 26.76 124.75 25.79 124.75 24.01C124.75 22.23 123.67 21.28 122.05 21.28H120.73V26.77H122.05V26.76Z" fill="#701B45"/>
<path d="M90.21 36.7405H87.48L86.76 38.8305H85.71L88.32 31.5705H89.39L92 38.8305H90.94L90.21 36.7405ZM88.84 32.5705C88.84 32.5705 88.68 33.2305 88.55 33.6005L87.74 35.9005H89.94L89.14 33.6005C89.02 33.2305 88.86 32.5705 88.86 32.5705H88.84Z" fill="#701B45"/>
<path d="M92.97 31.5705H93.99V36.2605C93.99 37.3705 94.71 38.0205 95.82 38.0205C96.93 38.0205 97.67 37.3705 97.67 36.2405V31.5705H98.69V36.2605C98.69 37.8705 97.53 38.9505 95.83 38.9505C94.13 38.9505 92.97 37.8705 92.97 36.2605V31.5705Z" fill="#701B45"/>
<path d="M102.1 32.4505H99.6099V31.5705H105.6V32.4505H103.11V38.8205H102.09V32.4505H102.1Z" fill="#701B45"/>
<path d="M106.65 31.5705H107.67V34.7605H111.43V31.5705H112.45V38.8305H111.43V35.6405H107.67V38.8305H106.65V31.5705Z" fill="#701B45"/>
<path d="M117.66 31.4396C119.76 31.4396 121.38 33.0496 121.38 35.1396C121.38 37.2296 119.76 38.9396 117.66 38.9396C115.56 38.9396 113.93 37.2696 113.93 35.1396C113.93 33.0096 115.56 31.4396 117.66 31.4396ZM117.66 38.0096C119.14 38.0096 120.33 36.7796 120.33 35.1396C120.33 33.4996 119.14 32.3596 117.66 32.3596C116.18 32.3596 114.98 33.5496 114.98 35.1396C114.98 36.7296 116.18 38.0096 117.66 38.0096Z" fill="#701B45"/>
<path d="M122.86 31.5697H125.08C125.84 31.5697 126.16 31.6297 126.44 31.7297C127.18 32.0097 127.66 32.7397 127.66 33.6897C127.66 34.6397 127.15 35.3997 126.35 35.6497V35.6697C126.35 35.6697 126.43 35.7597 126.57 35.9997L128.11 38.8197H126.96L125.43 35.9297H123.88V38.8197H122.86V31.5597V31.5697ZM125.34 35.0497C126.13 35.0497 126.63 34.5497 126.63 33.7297C126.63 33.1997 126.42 32.8197 126.05 32.6097C125.85 32.5097 125.62 32.4497 125.05 32.4497H123.88V35.0497H125.34Z" fill="#701B45"/>
<path d="M129.45 31.5705H130.47V38.8305H129.45V31.5705Z" fill="#701B45"/>
<path d="M134 32.4505H131.51V31.5705H137.5V32.4505H135.01V38.8205H133.99V32.4505H134Z" fill="#701B45"/>
<path d="M145.077 31.5412L142.525 35.6117V38.7912H141.561V35.7139L139 31.5412H140.066L142.048 34.7839L144.049 31.5412H145.077Z" fill="#701B45"/>
</g>
<defs>
<clipPath id="clip0_194_8">
<rect width="145" height="45" fill="white" transform="translate(0 0.5)"/>
</clipPath>
</defs>
</svg>
