<svg width="145" height="46" viewBox="0 0 145 46" fill="none" xmlns="http://www.w3.org/2000/svg">
<g clip-path="url(#clip0_561_3005)">
<path d="M0 9.29004H15.19V12.65H3.86V21.71H13.51V25.07H3.86V36.86H0V9.29004Z" fill="#701B45"/>
<path fill-rule="evenodd" clip-rule="evenodd" d="M8.76001 45.65H45.41L63.27 0.5H26.62L8.76001 45.65ZM33.79 9.29004H25.37V36.86H29.23V25.89H35.12L40.94 36.86H45.31L39.45 26.16C38.94 25.26 38.63 24.91 38.63 24.91V24.83C41.64 23.85 43.59 21 43.59 17.37C43.59 13.74 41.75 10.96 38.94 9.91004C37.89 9.52004 36.68 9.29004 33.79 9.29004ZM39.65 17.52C39.65 20.61 37.78 22.52 34.77 22.52L34.76 22.53H29.22V12.65H33.67C35.82 12.65 36.72 12.88 37.46 13.27C38.87 14.05 39.65 15.49 39.65 17.52Z" fill="#701B45"/>
<path d="M72.57 28.93H62.19L59.46 36.85H55.48L65.4 9.29004H69.46L79.38 36.85H75.36L72.59 28.93H72.57ZM67.38 13.08C67.38 13.08 66.76 15.58 66.29 16.98L63.21 25.72H71.56L68.52 16.98C68.05 15.57 67.47 13.08 67.47 13.08H67.39H67.38Z" fill="#701B45"/>
<path d="M86.6099 9.20945H90.6099V10.0895H87.6299V12.4695H90.1699V13.3495H87.6299V16.4495H86.6099V9.18945V9.20945Z" fill="#701B45"/>
<path d="M91.97 9.20996H92.99V16.47H91.97V9.20996Z" fill="#701B45"/>
<path d="M94.96 9.20996H95.97L99.2 13.93C99.47 14.32 99.81 14.98 99.81 14.98H99.83C99.83 14.98 99.76 14.33 99.76 13.93V9.20996H100.78V16.47H99.78L96.54 11.76C96.27 11.36 95.93 10.7 95.93 10.7H95.91C95.91 10.7 95.98 11.35 95.98 11.76V16.47H94.96V9.20996Z" fill="#701B45"/>
<path d="M106.34 14.3897H103.61L102.89 16.4797H101.84L104.45 9.21973H105.52L108.13 16.4797H107.07L106.34 14.3897ZM104.97 10.2197C104.97 10.2197 104.81 10.8797 104.68 11.2497L103.87 13.5497H106.07L105.27 11.2497C105.15 10.8797 104.99 10.2197 104.99 10.2197H104.97Z" fill="#701B45"/>
<path d="M109.2 9.20996H110.21L113.44 13.93C113.71 14.32 114.05 14.98 114.05 14.98H114.07C114.07 14.98 114 14.33 114 13.93V9.20996H115.02V16.47H114.02L110.78 11.76C110.51 11.36 110.17 10.7 110.17 10.7H110.15C110.15 10.7 110.22 11.35 110.22 11.76V16.47H109.2V9.20996Z" fill="#701B45"/>
<path d="M120.18 9.08984C121.93 9.08984 122.82 10.0498 122.82 10.0498L122.32 10.8098C122.32 10.8098 121.48 10.0198 120.22 10.0198C118.6 10.0198 117.54 11.2498 117.54 12.7998C117.54 14.3498 118.62 15.6698 120.23 15.6698C121.6 15.6698 122.47 14.7198 122.47 14.7198L123.01 15.4498C123.01 15.4498 122.01 16.5998 120.19 16.5998C118.01 16.5998 116.48 14.9298 116.48 12.8098C116.48 10.6898 118.06 9.09984 120.17 9.09984L120.18 9.08984Z" fill="#701B45"/>
<path d="M124.4 9.20996H125.42V16.47H124.4V9.20996Z" fill="#701B45"/>
<path d="M130.99 14.3897H128.26L127.54 16.4797H126.49L129.1 9.21973H130.17L132.78 16.4797H131.72L130.99 14.3897ZM129.62 10.2197C129.62 10.2197 129.46 10.8797 129.33 11.2497L128.52 13.5497H130.72L129.92 11.2497C129.8 10.8797 129.64 10.2197 129.64 10.2197H129.62Z" fill="#701B45"/>
<path d="M133.85 9.2102H134.87V15.5802H138.12V16.4602H133.85V9.2002V9.2102Z" fill="#701B45"/>
<path d="M86.61 20.3899H88.83C89.59 20.3899 89.91 20.4499 90.19 20.5499C90.93 20.8299 91.41 21.5599 91.41 22.5099C91.41 23.4599 90.9 24.2199 90.1 24.4699V24.4899C90.1 24.4899 90.18 24.5799 90.32 24.8199L91.86 27.6399H90.71L89.18 24.7499H87.63V27.6399H86.61V20.3799V20.3899ZM89.09 23.8699C89.88 23.8699 90.37 23.3699 90.37 22.5499C90.37 22.0199 90.16 21.6399 89.79 21.4299C89.59 21.3299 89.36 21.2699 88.79 21.2699H87.62V23.8699H89.08H89.09Z" fill="#701B45"/>
<path d="M93.2 20.3901H97.41V21.2701H94.21V23.5401H96.81V24.4201H94.21V26.7501H97.58V27.6301H93.19V20.3701L93.2 20.3901Z" fill="#701B45"/>
<path d="M99.0899 20.3901H103.09V21.2701H100.11V23.6501H102.65V24.5301H100.11V27.6301H99.0899V20.3701V20.3901Z" fill="#701B45"/>
<path d="M104.35 20.3896H105.37V25.0796C105.37 26.1896 106.09 26.8396 107.2 26.8396C108.31 26.8396 109.05 26.1896 109.05 25.0596V20.3896H110.07V25.0796C110.07 26.6896 108.91 27.7696 107.21 27.7696C105.51 27.7696 104.35 26.6896 104.35 25.0796V20.3896Z" fill="#701B45"/>
<path d="M111.93 20.3896H112.94L116.17 25.1096C116.44 25.4996 116.78 26.1596 116.78 26.1596H116.8C116.8 26.1596 116.73 25.5096 116.73 25.1096V20.3896H117.75V27.6496H116.75L113.51 22.9396C113.24 22.5396 112.9 21.8796 112.9 21.8796H112.88C112.88 21.8796 112.95 22.5296 112.95 22.9396V27.6496H111.93V20.3896Z" fill="#701B45"/>
<path d="M119.72 20.3896H122.12C124.34 20.3896 125.8 21.7196 125.8 24.0096C125.8 26.2996 124.34 27.6496 122.12 27.6496H119.72V20.3896ZM122.05 26.7596C123.68 26.7596 124.75 25.7896 124.75 24.0096C124.75 22.2296 123.67 21.2796 122.05 21.2796H120.73V26.7696H122.05V26.7596Z" fill="#701B45"/>
<path d="M90.21 36.7403H87.48L86.76 38.8303H85.71L88.32 31.5703H89.39L92 38.8303H90.94L90.21 36.7403ZM88.84 32.5703C88.84 32.5703 88.68 33.2303 88.55 33.6003L87.74 35.9003H89.94L89.14 33.6003C89.02 33.2303 88.86 32.5703 88.86 32.5703H88.84Z" fill="#701B45"/>
<path d="M92.97 31.5703H93.99V36.2603C93.99 37.3703 94.71 38.0203 95.82 38.0203C96.93 38.0203 97.67 37.3703 97.67 36.2403V31.5703H98.69V36.2603C98.69 37.8703 97.53 38.9503 95.83 38.9503C94.13 38.9503 92.97 37.8703 92.97 36.2603V31.5703Z" fill="#701B45"/>
<path d="M102.1 32.4503H99.6099V31.5703H105.6V32.4503H103.11V38.8203H102.09V32.4503H102.1Z" fill="#701B45"/>
<path d="M106.65 31.5703H107.67V34.7603H111.43V31.5703H112.45V38.8303H111.43V35.6403H107.67V38.8303H106.65V31.5703Z" fill="#701B45"/>
<path d="M117.66 31.4395C119.76 31.4395 121.38 33.0495 121.38 35.1395C121.38 37.2295 119.76 38.9395 117.66 38.9395C115.56 38.9395 113.93 37.2695 113.93 35.1395C113.93 33.0095 115.56 31.4395 117.66 31.4395ZM117.66 38.0095C119.14 38.0095 120.33 36.7795 120.33 35.1395C120.33 33.4995 119.14 32.3595 117.66 32.3595C116.18 32.3595 114.98 33.5495 114.98 35.1395C114.98 36.7295 116.18 38.0095 117.66 38.0095Z" fill="#701B45"/>
<path d="M122.86 31.5696H125.08C125.84 31.5696 126.16 31.6296 126.44 31.7296C127.18 32.0096 127.66 32.7396 127.66 33.6896C127.66 34.6396 127.15 35.3996 126.35 35.6496V35.6696C126.35 35.6696 126.43 35.7596 126.57 35.9996L128.11 38.8196H126.96L125.43 35.9296H123.88V38.8196H122.86V31.5596V31.5696ZM125.34 35.0496C126.13 35.0496 126.63 34.5496 126.63 33.7296C126.63 33.1996 126.42 32.8196 126.05 32.6096C125.85 32.5096 125.62 32.4496 125.05 32.4496H123.88V35.0496H125.34Z" fill="#701B45"/>
<path d="M129.45 31.5703H130.47V38.8303H129.45V31.5703Z" fill="#701B45"/>
<path d="M134 32.4503H131.51V31.5703H137.5V32.4503H135.01V38.8203H133.99V32.4503H134Z" fill="#701B45"/>
<path d="M145.077 31.541L142.525 35.6115V38.791H141.561V35.7138L139 31.541H140.066L142.048 34.7838L144.049 31.541H145.077Z" fill="#701B45"/>
</g>
<defs>
<clipPath id="clip0_561_3005">
<rect width="145" height="45" fill="white" transform="translate(0 0.5)"/>
</clipPath>
</defs>
</svg>
