<svg width="26" height="27" viewBox="0 0 26 27" fill="none" xmlns="http://www.w3.org/2000/svg">
<rect width="26" height="27" fill="#1E1E1E"/>
<g id="Screen 4">
<rect x="-1219.5" y="-3868.5" width="1479" height="6291" rx="4.5" stroke="#9747FF" stroke-dasharray="10 5"/>
<g id="Property 1=Variant4">
<rect width="1440" height="1011" transform="translate(-1200 -756)" fill="white"/>
<g id=" survey">
<rect width="1296" height="723" transform="translate(-1128 -612)" fill="#F0F0F1"/>
<g id="Variants">
<g id="BTNS">
<g id="BTN 3">
<rect width="225" height="67" transform="translate(-167 -20)" fill="#701B45"/>
<g id="ei:arrow-up">
<path id="Vector" d="M3.53606 13.5C3.53606 8.06564 7.76709 3.67188 13.0002 3.67188C18.2333 3.67188 22.4644 8.06564 22.4644 13.5C22.4644 18.9344 18.2333 23.3282 13.0002 23.3282C7.76709 23.3282 3.53606 18.9344 3.53606 13.5ZM21.3509 13.5C21.3509 8.70158 17.6209 4.82813 13.0002 4.82813C8.37948 4.82813 4.64949 8.70158 4.64949 13.5C4.64949 18.2985 8.37948 22.1719 13.0002 22.1719C17.6209 22.1719 21.3509 18.2985 21.3509 13.5Z" fill="white"/>
<path id="Vector_2" d="M12.0534 18.2984L16.6741 13.4999L12.0534 8.70147L12.8328 7.89209L18.2329 13.4999L12.8328 19.1077L12.0534 18.2984Z" fill="white"/>
<path id="Vector_3" d="M17.4536 12.9219L17.4536 14.0781L7.98947 14.0781L7.98947 12.9219L17.4536 12.9219Z" fill="white"/>
</g>
</g>
</g>
</g>
</g>
</g>
</g>
</svg>
